<svg width="600" height="400" viewBox="0 0 600 400" fill="none" xmlns="http://www.w3.org/2000/svg">
  <!-- خلفية -->
  <rect width="600" height="400" fill="url(#backgroundGradient)"/>
  
  <!-- أشخاص -->
  <!-- شخص 1 -->
  <g transform="translate(100, 150)">
    <circle cx="30" cy="30" r="25" fill="#4A90E2"/>
    <rect x="15" y="55" width="30" height="40" rx="5" fill="#2E5BBA"/>
    <rect x="10" y="95" width="20" height="30" rx="3" fill="#1E3A8A"/>
    <rect x="30" y="95" width="20" height="30" rx="3" fill="#1E3A8A"/>
    <rect x="20" y="125" width="20" height="15" rx="2" fill="#374151"/>
  </g>
  
  <!-- شخص 2 -->
  <g transform="translate(250, 120)">
    <circle cx="30" cy="30" r="25" fill="#10B981"/>
    <rect x="15" y="55" width="30" height="40" rx="5" fill="#059669"/>
    <rect x="10" y="95" width="20" height="30" rx="3" fill="#047857"/>
    <rect x="30" y="95" width="20" height="30" rx="3" fill="#047857"/>
    <rect x="20" y="125" width="20" height="15" rx="2" fill="#374151"/>
  </g>
  
  <!-- شخص 3 -->
  <g transform="translate(400, 140)">
    <circle cx="30" cy="30" r="25" fill="#F59E0B"/>
    <rect x="15" y="55" width="30" height="40" rx="5" fill="#D97706"/>
    <rect x="10" y="95" width="20" height="30" rx="3" fill="#B45309"/>
    <rect x="30" y="95" width="20" height="30" rx="3" fill="#B45309"/>
    <rect x="20" y="125" width="20" height="15" rx="2" fill="#374151"/>
  </g>
  
  <!-- عناصر رياضية -->
  <!-- كرة قدم -->
  <g transform="translate(80, 250)">
    <circle cx="20" cy="20" r="15" fill="#FFFFFF" stroke="#374151" stroke-width="2"/>
    <path d="M20 5 L25 15 L35 15 L27 22 L30 32 L20 27 L10 32 L13 22 L5 15 L15 15 Z" fill="#374151"/>
  </g>
  
  <!-- كرة سلة -->
  <g transform="translate(500, 280)">
    <circle cx="20" cy="20" r="15" fill="#F97316"/>
    <path d="M5 20 Q20 10 35 20 Q20 30 5 20" stroke="#FFFFFF" stroke-width="2" fill="none"/>
    <path d="M5 20 Q20 30 35 20" stroke="#FFFFFF" stroke-width="2" fill="none"/>
  </g>
  
  <!-- خطوط زخرفية -->
  <g opacity="0.3">
    <circle cx="50" cy="50" r="3" fill="#FFFFFF"/>
    <circle cx="550" cy="80" r="3" fill="#FFFFFF"/>
    <circle cx="100" cy="350" r="3" fill="#FFFFFF"/>
    <circle cx="500" cy="320" r="3" fill="#FFFFFF"/>
  </g>
  
  <!-- تعريفات التدرج -->
  <defs>
    <linearGradient id="backgroundGradient" x1="0%" y1="0%" x2="100%" y2="100%">
      <stop offset="0%" style="stop-color:#667eea;stop-opacity:1" />
      <stop offset="100%" style="stop-color:#764ba2;stop-opacity:1" />
    </linearGradient>
  </defs>
</svg>
