<svg width="60" height="30" viewBox="0 0 60 30" fill="none" xmlns="http://www.w3.org/2000/svg">
  <!-- رمز اللانهاية الأزرق -->
  <g transform="translate(5, 5)">
    <path d="M10 10C10 6.68629 12.6863 4 16 4C19.3137 4 22 6.68629 22 10C22 13.3137 19.3137 16 16 16C12.6863 16 10 13.3137 10 10Z" 
          fill="none" 
          stroke="#007bff" 
          stroke-width="2.5" 
          stroke-linecap="round"/>
    <path d="M22 10C22 6.68629 24.6863 4 28 4C31.3137 4 34 6.68629 34 10C34 13.3137 31.3137 16 28 16C24.6863 16 22 13.3137 22 10Z" 
          fill="none" 
          stroke="#007bff" 
          stroke-width="2.5" 
          stroke-linecap="round"/>
    <path d="M10 10C10 13.3137 12.6863 16 16 16C19.3137 16 22 13.3137 22 10" 
          fill="none" 
          stroke="#007bff" 
          stroke-width="2.5" 
          stroke-linecap="round"/>
    <path d="M22 10C22 13.3137 24.6863 16 28 16C31.3137 16 34 13.3137 34 10" 
          fill="none" 
          stroke="#007bff" 
          stroke-width="2.5" 
          stroke-linecap="round"/>
  </g>
</svg>
